<svg width="20" height="20" viewBox="0 0 20 20" fill="none" xmlns="http://www.w3.org/2000/svg">
<path d="M2.22222 20C1.61111 20 1.08796 19.7824 0.652778 19.3472C0.217593 18.912 0 18.3889 0 17.7778V2.22222C0 1.61111 0.217593 1.08796 0.652778 0.652778C1.08796 0.217593 1.61111 0 2.22222 0H10V2.22222H2.22222V17.7778H17.7778V10H20V17.7778C20 18.3889 19.7824 18.912 19.3472 19.3472C18.912 19.7824 18.3889 20 17.7778 20H2.22222ZM7.44444 14.1111L5.88889 12.5556L16.2222 2.22222H12.2222V0H20V7.77778H17.7778V3.77778L7.44444 14.1111Z" fill="#FFF1E8"/>
</svg>
