<svg width="19" height="20" viewBox="0 0 19 20" fill="none" xmlns="http://www.w3.org/2000/svg">
<path d="M14.8991 7.97266C14.8991 11.8263 11.785 14.9453 7.94957 14.9453C4.11416 14.9453 1 11.8263 1 7.97266C1 4.11903 4.11416 1 7.94957 1C11.785 1 14.8991 4.11903 14.8991 7.97266Z" stroke="#3A3A3A" stroke-width="2"/>
<path d="M14.8991 7.97266C14.8991 11.8263 11.785 14.9453 7.94957 14.9453C4.11416 14.9453 1 11.8263 1 7.97266C1 4.11903 4.11416 1 7.94957 1C11.785 1 14.8991 4.11903 14.8991 7.97266Z" stroke="black" stroke-opacity="0.2" stroke-width="2"/>
<path d="M14.8991 7.97266C14.8991 11.8263 11.785 14.9453 7.94957 14.9453C4.11416 14.9453 1 11.8263 1 7.97266C1 4.11903 4.11416 1 7.94957 1C11.785 1 14.8991 4.11903 14.8991 7.97266Z" stroke="black" stroke-opacity="0.2" stroke-width="2"/>
<line y1="-1" x2="8.95836" y2="-1" transform="matrix(0.70465 0.709555 -0.70465 0.709555 11.0685 13.5537)" stroke="#3A3A3A" stroke-width="2"/>
<line y1="-1" x2="8.95836" y2="-1" transform="matrix(0.70465 0.709555 -0.70465 0.709555 11.0685 13.5537)" stroke="black" stroke-opacity="0.2" stroke-width="2"/>
<line y1="-1" x2="8.95836" y2="-1" transform="matrix(0.70465 0.709555 -0.70465 0.709555 11.0685 13.5537)" stroke="black" stroke-opacity="0.2" stroke-width="2"/>
</svg>
